<svg width="42" height="39" viewBox="0 0 42 39" fill="none" xmlns="http://www.w3.org/2000/svg">
<path d="M4.99477 28.25L20.9844 1.92622L36.974 28.25H4.99477Z" stroke="#E72727" stroke-width="2"/>
<path d="M21.6638 11.2031L21.5495 20.3877H20.0817L19.9587 11.2031H21.6638ZM19.906 23.1826C19.906 22.9189 19.9851 22.6963 20.1433 22.5146C20.3073 22.333 20.5476 22.2422 20.864 22.2422C21.1745 22.2422 21.4118 22.333 21.5759 22.5146C21.7458 22.6963 21.8308 22.9189 21.8308 23.1826C21.8308 23.4346 21.7458 23.6514 21.5759 23.833C21.4118 24.0146 21.1745 24.1055 20.864 24.1055C20.5476 24.1055 20.3073 24.0146 20.1433 23.833C19.9851 23.6514 19.906 23.4346 19.906 23.1826Z" fill="#E72727"/>
</svg>
